/* XPM */
static char *_135384bbd4546cd89224ec8f722dd1e4e5CtkL4vu6a1eyt[] = {
/* columns rows colors chars-per-pixel */
"32 32 46 1 ",
"  c #A49779",
". c #AB9D7E",
"X c #ADA07F",
"o c #AFA180",
"O c #B3A584",
"+ c #B7A886",
"@ c #B8A987",
"# c #B7A988",
"$ c #BCAD8A",
"% c #BFB08D",
"& c #C1B28E",
"* c #C5B591",
"= c #C7B894",
"- c #CABB95",
"; c #CCBD97",
": c #CBBC98",
"> c #CDBD98",
", c #D0BF98",
"< c #CFC09A",
"1 c #D1C29B",
"2 c #D2C29C",
"3 c #D4C39C",
"4 c #D3C49F",
"5 c #D6C69E",
"6 c #D9C89F",
"7 c #D7C7A0",
"8 c #D8C7A1",
"9 c #D7C8A2",
"0 c #DACAA1",
"q c #DCCBA3",
"w c #DCCCA3",
"e c #DACBA5",
"r c #DECEA6",
"t c #DECFA8",
"y c #DFD1A9",
"u c #E0CFA6",
"i c #E1D0A7",
"p c #E0D1A9",
"a c #E4D3A9",
"s c #E4D5AB",
"d c #E6D5AB",
"f c #E3D5AD",
"g c #E5D5AC",
"h c #EAD9AD",
"j c #EBDBB1",
"k c #EDDEB4",
/* pixels */
"=>qd1&$Xo=1r0*=2=;2&+=1=1=*;=255",
"$&5&+&=@=112%+17$2=+&====&=errr&",
"$>*+$=======$&;%=>#+@@$$=1rjkw*O",
"r1===$$@=>====$><&++X$%=>25p2$+:",
"4*&+$O++10=&1*>0==#+#%===50t&#*>",
"$O.@%$=>3=$;>>1&&$.$==51>1&=+>5&",
"Oo+=>>0r=+=;;>&&$%$=;;hq1++$5a=&",
" .=12=5=.&;>;-&=50&=+$1&O+15d&$+",
" #722==*%150===;r=++.$&+$5>0>+%O",
"O=505=>=$>p=&===1&+$+==>;==r0=*+",
"#>ig*#=O&27;=&==$.O@;p61===;>%&O",
"&>72O$&=1;0>=51==#$=3;1==;&12=*+",
"==07*%$>7q=$7i1>7==@$===&=131***",
"&=g=#:=;5>%5d=@==$.#=1,&=&==&&=4",
"=d2O==1r0&;>>&#$&+@=01>&##=&=250",
"&;$=5205&20==22r=+&;005=#%;10r2=",
"@&#=q1$&2j>=5ppe===15=;&#=52rr;=",
"#&&55$+=2*$0gf>:=@@=5==+@;;15#$#",
"#$=5=&$$&+=07=$$O.+==$OO$==1$.o.",
";>g5=*==*=;$@=##*;=1&=%=;5;$.#&;",
"555&O&=;#$=@>&$42p5510&===#+O@;r",
"====&;5=O=1==$=&152>5=&5====$%i5",
"@&=5=>;&%=3>>2+O>=>20=80wd%+=15$",
"5153;>0;%=055;+25=2r55pr>%O&>;=>",
"q5>;150=&>w;&%&9=1gkju;&$&&=&=25",
"&=$;==&$+>=++=&==0kr52====+#O=>=",
"===$$$+$&=$+;125>d02;=O.ooO+=3=$",
">=$$=$$==%%=8=>=*>20>&O+##O$5=$=",
">$@&%&$$#+=><2=O+&1=>*O.&=$;;O+=",
";&====#=&52>2>&=;;===$O+>==5>;;=",
"1=%&&>2;=>*25y50==-;&*$12=0i0;==",
"=$>100;$+$>2gp2>&121&+==%>51$*4>"
};
