/* XPM */
static char *_d720ce16c40467ae922eed1ef466bcd6DWjiBaFJylT9Zjc[] = {
/* columns rows colors chars-per-pixel */
"96 32 74 1 ",
"  c #412E27",
". c #45312A",
"X c #4C352C",
"o c #4F382F",
"O c #543126",
"+ c #5E3527",
"@ c #53362C",
"# c #5A362B",
"$ c #55382E",
"% c #5B392E",
"& c #463732",
"* c #4D3730",
"= c #4E3932",
"- c #4E3E38",
"; c #553B32",
": c #5C3D32",
"> c #603628",
", c #633B2E",
"< c #6B3D2E",
"1 c #633E32",
"2 c #6A3F31",
"3 c #5D4036",
"4 c #574038",
"5 c #5C4238",
"6 c #74402F",
"7 c #7D422F",
"8 c #644135",
"9 c #6C4235",
"0 c #644439",
"q c #6C4639",
"w c #6C483C",
"e c #734435",
"r c #794635",
"t c #7A4635",
"y c #784737",
"u c #7C4634",
"i c #7D4634",
"p c #7A4837",
"a c #7E4836",
"s c #704638",
"d c #744738",
"f c #784738",
"g c #734839",
"h c #764839",
"j c #744A3B",
"k c #764B3C",
"l c #784B3B",
"z c #7A4A3B",
"x c #7D4A3A",
"c c #7E4C3C",
"v c #804632",
"b c #844632",
"n c #804735",
"m c #804A37",
"M c #854A37",
"N c #8A4C37",
"B c #814B3A",
"V c #854B38",
"C c #824D3B",
"Z c #874C38",
"A c #864E3B",
"S c #884E3B",
"D c #8A4E3A",
"F c #8D4D38",
"G c #8F4E38",
"H c #924F3A",
"J c #944F39",
"K c #85503F",
"L c #87513F",
"P c #8C513D",
"I c #91503B",
"U c #93513C",
"Y c #9D533B",
"T c #9E553D",
/* pixels */
"1:%11eyxz99991eeyddhhkw0:;:$991#eaBpyzeedg89eypyBxzyes9zh8q8q8:;%2uMuymMTUyy<e<<MIDyazds999991:%",
"xe9d999999fyyds8edehd91%81119eeeyyxxyyyyes89ce9ee9q0888:::;o::8::89eey2>,#,<<mFIIFZaZCh1#,e9e%1e",
"9yyee999999ess889881%22yayye9e99yaBz9yxhz9:18:8;;:83=;4;;;;;o:8:881%,,>6yuyeuVMnMFDyee<,6NMZye9y",
"ummyaBe<yyzzh99918:199eymZz2ee9eyZCyyxcs9998q3:;::83:;X.@@$%%0:;%%199eLc99euDByyDIUp99yvMbJIMuFD",
"IZye9yyyC9xs89819h19ez9yy19eaBZzeyaxych899qq:83:330:@oX$:%9zxg81:1999sg80:1<eeyVZVxy22yDDZZMMmMm",
"Hmyyhs81q899%8989q:1e298%199,eBzeypzhh99qq8:80;;;;=.@:11:,eyy988:999,h880::19ypyeyyyeyyeyyeay<uM",
"Myxzes88:::8:89898:1,9s98es9echyzyyzccehw8::;;;;o;;o;:12<yppz9e89qq:9q;08881:%e9eyexyyumZmMDZyyy",
"yxChsq:188:;31811%12d8%,9q18qq119e9988q0;;;8:;88:$;$$;:19xxhee99g0880oo::98;8999e999ehes9yxCCy9e",
"eyesg98:%88w0::%:898:$1ee811119889q008:::1qq888111:18:81szyyeeeeg880o@%%198$%119:;;88$:8#,yz919y",
"pzh98%8888::;;;;:%111181811,,ez8:8:;*=;:803::388hhww::88189z2eydsqw8;8119s8:::98$888$:9%,99x919e",
"q8q::;;::X@%%%@%:9999e911,#<enDaz98$@;;8::;:535555;;;:00:;99;ehsqq0;$111hsg888g811::9q8%%eCL9199",
"88:;:;@:$%s8:1zCk919222uaeymDPcceh98888q883;;=;-&**;::8:;888::q004;:8q8qgq8883:::1991:1812cs8188",
":=.oX$::1h%19hz9::912yaauZDaxcqq80;::8889q803:;*=;=;;:::4;@;:;::;::4;::38;:888::119989e9981:::3;",
"X X$$:@$%%1<xz199e989eeuZDZaZChg::;;54;;88835;=;=;o$:$;;$oo%8:18:818;$:;o;:::::::198%1zk8;X$;8:X",
";$1999999y99peez92ed91yaBaaBxz998:8:;===Xo;;$;X.X@X:%%8%1119998:$%%%198::88::::;;:%,eeg8::;;::1:",
"8:111199299eyyyy9eyyyeyzyypxh999::8;$:8:;:@:,<<eye9x9,1199zs:##,#,199919988:19o%:1188q8:;:::1$9w",
"%%119999ee99hz9e9ex99yyyepzhs99988:89qq:80$91,uZyaayeezeye9888s92mPh98199899119q188:88;:;:11q:91",
"999h9es9999#9eq:1899999ehhs89919q8$::88::8;9q@,99zy9yByeyzg0:111,yxyq89998199%hq1w3%81988q898##%",
"919e9h989e81hqq:188989:99199e99q1$:9q88880;18#<uDL9epxyyxh99119eeeCx9981k11888981d819es811#,,199",
"189999118911980:8q19qg8819dde991%%9919q88:%88$9exe9eyeyyzee91%e9eg99ez9191,9e1%19c9191###<vFDed1",
"yxy99899shq88888:81891:199ezdey91199ss9188:1#%,,,9e219eh98999eyzs80%188991129<yyey,%+#+ymvUDyeum",
"FByhqqqq89qq1:19818q8189hg999sshg99999999:#19dq9:81%999gq9ss99ge991,,881%1199yme92%1eeeuZmBeyuDN",
"uyxzq0:;%88q88q988111:11%11%99998;88988:::81:@oX@$$19g89911111:$%eyye29911%#,29,,yz91,eZZe<eyauu",
"NFCdq:;:::89:89898%,,,,<uxe9291111818:;XX$$XO%%1ee98$@$%1199e9812yyxxyz91%,eeyyeNDmyyBZxyyuMFu6u",
"UPC991803:88:;:19929yyzCCyy2yyyze1%#%#O,9yyxyzz9dde998112299yeyeeye999eyyeeeyeeuZmBzyyx9zzaBuuDF",
"xxyezzs1;;;;$@:19191ed98119<emayy9yyuyaaBCayyyyepeyZh98199umPpeyyeeyyzCZzzyyyyaZCCy992eey9929yzz",
"9d2922,91:%::%%%,9,ye911999exCxexeaCyyaaBayamaBymZCxzzg899eyp91yey9yhycw8889yeaaye2eeyzzd9919yde",
"919e22eeyae9ee222euDs1yzh99998191%2eeyyxyyeeuyyeByyczh91899d99ee99ey9q8$XX%9eyyyyxzyyxzee9999999",
"hzq18eyyuDyeyyyVayDZC999188%%19%19yByxyds9e9yxayxeyy9998:89ee98119ee8%##,1yaxheyuDzyzze9sh;11989",
"999999eyyxddedzxyZCC919811:888911,yy9pxh99sseepz9yx9929,9119y91e98:%,#<mDPCpye9yyxyy9eyzqq888911",
":9y9ee99ed9189811999:18::198:;911ee9apyhes9e9eyy9fy99yyye,<eeeyx9:@#<2e6MFye9eDBy99yeyz998119q18",
"899999999ee999992ezh9880:898%:8$#1,eBeec9s99999yyyyyyyeech9eyz9,>2#<yy67YHumeeDe,<mayaxee9esh998"
};
