/* XPM */
static char *result[] = {
/* columns rows colors chars-per-pixel */
"32 32 169 2 ",
"   c #311F27",
".  c #162139",
"X  c #1D263B",
"o  c #22283C",
"O  c #5C382F",
"+  c #613D35",
"@  c #71493F",
"#  c #183958",
"$  c #2C354B",
"%  c #383D4D",
"&  c #213C57",
"*  c #483F48",
"=  c #22415E",
"-  c #3A4A5E",
";  c #38566D",
":  c #2B5776",
">  c #305773",
",  c #325976",
"<  c #345D7A",
"1  c #395E79",
"2  c #35617E",
"3  c #3D627E",
"4  c #48464C",
"5  c #594A4D",
"6  c #444955",
"7  c #594C51",
"8  c #5B5559",
"9  c #57585E",
"0  c #794F43",
"q  c #685B57",
"w  c #795D55",
"e  c #69615D",
"r  c #7B625C",
"t  c #4D5665",
"y  c #465B6B",
"u  c #4A5C6C",
"i  c #505D68",
"p  c #57636E",
"a  c #476275",
"s  c #4B697E",
"d  c #546472",
"f  c #56697B",
"g  c #5C737D",
"h  c #66666A",
"j  c #7A6C63",
"k  c #7D786D",
"l  c #646771",
"z  c #626873",
"x  c #63727C",
"c  c #737673",
"v  c #767A76",
"b  c #7D7D75",
"n  c #834F3C",
"m  c #9A563A",
"M  c #BB4E23",
"N  c #B4542D",
"B  c #A75D3A",
"V  c #BC5C34",
"C  c #BC643C",
"Z  c #C65626",
"A  c #C45728",
"S  c #C5592A",
"D  c #CA5B2A",
"F  c #DE5D25",
"G  c #D15C2C",
"H  c #D4622F",
"J  c #C4673B",
"K  c #DE6730",
"L  c #E07E3F",
"P  c #885948",
"I  c #965B44",
"U  c #DE7B43",
"Y  c #87867B",
"T  c #928876",
"R  c #9B8A74",
"E  c #968C7A",
"W  c #9C8E79",
"Q  c #9F957E",
"!  c #A49779",
"~  c #AA9D7E",
"^  c #ADA07F",
"/  c #DF8B56",
"(  c #EA8746",
")  c #F28A48",
"_  c #FF974D",
"`  c #FFA155",
"'  c #D59362",
"]  c #2D5F80",
"[  c #366584",
"{  c #386583",
"}  c #376887",
"|  c #3A6987",
" . c #346B8B",
".. c #3A6B8A",
"X. c #3D718F",
"o. c #376F93",
"O. c #3D7191",
"+. c #466C86",
"@. c #44728E",
"#. c #48708A",
"$. c #517182",
"%. c #5C7486",
"&. c #427593",
"*. c #4C7794",
"=. c #437896",
"-. c #4A7996",
";. c #447B9A",
":. c #687782",
">. c #5B849C",
",. c #678798",
"<. c #798C96",
"1. c #4B85A7",
"2. c #5587A5",
"3. c #5388A7",
"4. c #5A94B5",
"5. c #5A9ABE",
"6. c #638EA6",
"7. c #7094A4",
"8. c #5AA5CC",
"9. c #69A6C6",
"0. c #70A8C5",
"q. c #6CB2D5",
"w. c #76BFE1",
"e. c #7BC7EB",
"r. c #858B85",
"t. c #8C8D84",
"y. c #89928E",
"u. c #9E9685",
"i. c #949589",
"p. c #9C9A8B",
"a. c #849199",
"s. c #A59B84",
"d. c #A49A85",
"f. c #AEA182",
"g. c #B3A584",
"h. c #B7A886",
"j. c #B8AA87",
"k. c #B7A98A",
"l. c #BBAD8A",
"z. c #BFB08D",
"x. c #A9A592",
"c. c #B3AA92",
"v. c #8095A3",
"b. c #84A4B6",
"n. c #AFBABE",
"m. c #C0AF8D",
"M. c #C1B28E",
"N. c #C4B591",
"B. c #CAB791",
"V. c #C7B894",
"C. c #CABB96",
"Z. c #C6B998",
"A. c #CEBE99",
"S. c #D1BF9A",
"D. c #CFC09A",
"F. c #D3C39C",
"G. c #D6C7A1",
"H. c #D8C8A2",
"J. c #DBCBA3",
"K. c #DCCFA9",
"L. c #DFD1A9",
"P. c #E3D4AB",
"I. c #E5D5AA",
"U. c #EBDCB3",
"Y. c #ABC1CC",
"T. c #BAC9CE",
"R. c #82CAEB",
"E. c #9FEAFF",
"W. c #CADBDE",
/* pixels */
"V.A.J.I.F.M.l.^ ^ B.F.J.J.M.V.F.V.C.F.N.l.N.D.V.F.C.M.D.C.F.F.F.",
"k.N.F.M.j.M.M.l.C.F.F.F.z.j.D.H.l.D.V.g.M.C.B.V.C.z.C.H.K.J.K.N.",
"l.A.N.g.l.B.B.M.M.V.V.N.z.V.A.z.V.A.l.g.l.g.z.z.V.F.J.U.U.K.M.g.",
"K.F.V.V.B.M.l.l.V.D.V.C.D.V.l.C.A.M.h.h.^ l.z.B.A.F.F.P.H.z.g.A.",
"F.M.M.h.z.^ g.g.F.J.A.V.F.M.A.H.N.N.h.h.l.z.B.C.C.F.J.P.M.k.M.D.",
"l.g.^ l.z.z.N.D.F.V.N.C.C.A.F.M.M.l.~ z.V.V.F.F.D.F.V.V.h.A.F.M.",
"g.^ g.M.D.D.F.I.C.k.V.A.A.A.M.M.l.z.z.B.C.A.U.F.F.h.h.l.F.P.A.M.",
"! ~ B.D.F.C.F.C.f.M.C.D.A.V.N.V.F.J.M.M.h.l.D.M.k.h.F.F.I.M.z.h.",
"! l.F.F.D.N.V.V.N.B.B.B.k.f.d.s.x.i.t.a.r.t.Q f.N.F.S.F.F.j.M.g.",
"g.V.F.A.p.y.a.<.,.,.,.>.>.2.3.3.3.1.o.1.e.R.0.7.i.V.S.J.F.C.M.g.",
"l.S.A.%.-.2.;.=.&.@.X.| { 2 < , : - 5 * d *.+.@.3 Y B.C.S.M.M.g.",
"M.A.p.1 3 > > , > , < < < < 2 [ ] 0 P t P #.q.9.4.i ~ D.F.C.M.g.",
"M.B.u.3 X..................... .2 w 5.2.8 P 8.R.e.0.9 C.F.N.N.N.",
"M.C.p.< } [ { { [ [ { { } [ .. .1 r 4.b.: P h 8.w.E.4.h l.z.N.G.",
"V.P.Y O.;.=.=.=.=.=.=.=.=.=.=.O.+.I l <.t q J x -.6.>.r R F.F.H.",
"M.D.b ....| | | ..| | ......+.O.a G F I J H D / ( L ( ` ' c.F.N.",
"j.M.c [ ..[ { { 2 } } 2 [ 2 [ [ y B B Z A A M C ` _ _ ) U W C.V.",
"l.m.v [ ..[ ......} | } }  .}  .a N N D D D S N m P @ 5 5 T l.k.",
"l.l.j { O.O.| ....} ..} ..@.}  .a S K H A A S N l y # > p.W f.~ ",
"A.A.q &...- 7.$.........@...}  .y J n O m V G V d.r.& % 8 E M.C.",
"F.F.r.g 6 6 W.l = 2 | @.....o.o.d + . v.t n A M 5 * 7 h %.s m.J.",
"M.B.B.C.k.6 z $ X k t.c p u ; 1 t   :.Y.n.X $.i f ,.>.+.s v J.F.",
"l.M.C.F.V.k.e k ! V.F.D.S.A.~ W d.q u T.a.. & $.$.:.Y R M.D.F.M.",
"F.F.F.F.A.D.F.A.N.A.J.F.G.C.g.F.F.Z.4 % o % k J.F.z.^ m.D.A.M.S.",
"J.F.A.A.D.F.F.F.V.A.K.A.M.l.M.H.C.D.K.u.p.F.D.N.z.z.M.B.M.V.F.F.",
"M.B.l.S.B.B.M.z.g.A.V.g.g.B.V.V.Z.H.U.J.H.D.N.N.V.N.j.j.g.A.A.V.",
"A.M.B.l.l.N.l.z.N.V.l.k.A.F.F.F.D.P.J.G.D.C.f.~ f.f.g.g.M.F.M.l.",
"A.B.M.l.V.l.z.M.V.z.z.V.H.V.A.V.N.D.D.J.D.N.g.g.l.k.g.l.F.C.l.B.",
"D.z.l.M.M.z.l.l.l.g.V.A.D.F.V.g.g.M.F.C.D.M.g.^ M.N.l.D.D.^ g.B.",
"A.M.C.C.V.V.l.M.M.G.F.F.F.A.z.N.C.A.A.C.V.z.f.h.D.M.V.F.D.D.A.C.",
"D.N.M.M.M.D.F.C.V.C.V.F.F.L.F.J.V.V.C.C.M.M.z.D.F.C.H.K.F.D.C.B.",
"M.l.F.F.F.F.A.l.h.l.A.F.P.L.F.D.M.F.F.F.M.g.V.V.z.A.F.F.z.M.F.D."
};
