/* XPM */
static char *ffa1f6fcc95b4604f2c017e910003ad9dmqBz6vrPqFvMS3i[] = {
/* columns rows colors chars-per-pixel */
"32 32 182 2 ",
"   c #311F27",
".  c #162139",
"X  c #1D263B",
"o  c #22283C",
"O  c #5C382F",
"+  c #613D35",
"@  c #71493F",
"#  c #162640",
"$  c #183958",
"%  c #2C354B",
"&  c #383D4D",
"*  c #213C57",
"=  c #483F48",
"-  c #563F40",
";  c #22415E",
":  c #324357",
">  c #3A4A5E",
",  c #38566D",
"<  c #2B5776",
"1  c #305773",
"2  c #325976",
"3  c #345D7A",
"4  c #395E79",
"5  c #35617E",
"6  c #3D627E",
"7  c #48464C",
"8  c #594A4D",
"9  c #444955",
"0  c #594C51",
"q  c #5B5559",
"w  c #57585E",
"e  c #794F43",
"r  c #7F5140",
"t  c #685B57",
"y  c #795D55",
"u  c #69615D",
"i  c #76655D",
"p  c #7B625C",
"a  c #4D5665",
"s  c #465B6B",
"d  c #4A5C6C",
"f  c #505D68",
"g  c #465F71",
"h  c #57636E",
"j  c #476275",
"k  c #4B697E",
"l  c #546472",
"z  c #56697B",
"x  c #5C737D",
"c  c #66666A",
"v  c #7A6C63",
"b  c #7D786D",
"n  c #646771",
"m  c #626873",
"M  c #63727C",
"N  c #737673",
"B  c #767A76",
"V  c #7D7D75",
"C  c #834F3C",
"Z  c #9A563A",
"A  c #BB4E23",
"S  c #B95127",
"D  c #B4542D",
"F  c #A75D3A",
"G  c #BC5C34",
"H  c #BC643C",
"J  c #C45728",
"K  c #C5592A",
"L  c #CA5B2A",
"P  c #D55C29",
"I  c #C25E33",
"U  c #D4622F",
"Y  c #C4673B",
"T  c #DE6730",
"R  c #E07E3F",
"E  c #885948",
"W  c #965B44",
"Q  c #80786D",
"!  c #DE7B43",
"~  c #87867B",
"^  c #928876",
"/  c #9B8A74",
"(  c #968C7A",
")  c #9C8E79",
"_  c #9F957E",
"`  c #A49779",
"'  c #AC9E7E",
"]  c #AEA07F",
"[  c #DF8B56",
"{  c #EA8746",
"}  c #F28A48",
"|  c #FF974D",
" . c #FFA155",
".. c #D59362",
"X. c #2D5F80",
"o. c #366584",
"O. c #386583",
"+. c #376887",
"@. c #3A6987",
"#. c #346B8B",
"$. c #3A6B8A",
"%. c #3D718F",
"&. c #376F93",
"*. c #3D7191",
"=. c #466C86",
"-. c #45718D",
";. c #517182",
":. c #5C7486",
">. c #427593",
",. c #4C7794",
"<. c #437896",
"1. c #4A7996",
"2. c #447B9A",
"3. c #687782",
"4. c #53839F",
"5. c #5B849C",
"6. c #678798",
"7. c #798C96",
"8. c #4B85A7",
"9. c #5587A5",
"0. c #5388A7",
"q. c #5A94B5",
"w. c #5A9ABE",
"e. c #638EA6",
"r. c #7094A4",
"t. c #5AA5CC",
"y. c #69A6C6",
"u. c #70A8C5",
"i. c #6CB2D5",
"p. c #76BFE1",
"a. c #7BC7EB",
"s. c #858B85",
"d. c #8C8D84",
"f. c #89928E",
"g. c #999688",
"h. c #9C9A8B",
"j. c #849199",
"k. c #A49A84",
"l. c #A59B84",
"z. c #AEA182",
"x. c #A7A08B",
"c. c #B3A484",
"v. c #B7A886",
"b. c #B8A987",
"n. c #B6AA8E",
"m. c #BBAC8A",
"M. c #BFB08D",
"N. c #A9A592",
"B. c #B3AA92",
"V. c #8095A3",
"C. c #84A4B6",
"Z. c #AFBABE",
"A. c #C0AF8D",
"S. c #C1B28E",
"D. c #C5B592",
"F. c #C7B894",
"G. c #C8B895",
"H. c #CABB95",
"J. c #CDBD98",
"K. c #CEBE98",
"L. c #D1BF9A",
"P. c #D1C19B",
"I. c #D2C19A",
"U. c #D3C39C",
"Y. c #D3C39D",
"T. c #D3C49E",
"R. c #D6C59E",
"E. c #D6C7A0",
"W. c #D8C7A0",
"Q. c #D7C8A1",
"!. c #D9C9A2",
"~. c #DBCBA3",
"^. c #DBCBA4",
"/. c #DDCDA6",
"(. c #DFD0A8",
"). c #E0D0A6",
"_. c #E3D4AA",
"`. c #ABC1CC",
"'. c #BAC9CE",
"]. c #82CAEB",
"[. c #9FEAFF",
"{. c #CADBDE",
/* pixels */
"G.J.~._.P.S.m.z.z.D.P./.~.D.D.U.F.J.U.S.b.F.P.G.P.G.D.J.G.U.R.R.",
"m.D.R.S.b.S.D.b.G.P.P.U.S.v.P.E.m.U.G.c.S.G.G.D.G.S.G.^./././.S.",
"m./.J.m.S.c.D.J.G.D.G.F.S.m.D.S.c.b.m.P._.~.J.S.D.J._.Q.b.c.c.c.",
"/.R.J.G.m.D.D.S.D.D.J.F.J.S.U.J.G.J.R.R._.E.F.J.T.T.G.m.' b.J.J.",
"T.~.R.D.S.D.D.G.D.F.D.R.G.U.).(.U.R.J.~.Q.F.E.R.^.T.v.b.J.~.P.J.",
"m.P.m.c.c.M.G.D.D.F.J.D.m.R.~.P.D.c.m.P.D.~.^.G.F.c.c.R.G.m.R.S.",
"c.S.m.m.D.G.D.G.F.G.U.G.G.J.G.D.S.D.v.M.J.(.F.D.D.b.G.G.m.S.J.S.",
"` P.J.G.M.G.R.m.c.J.D.D.G.~.R.J.J.b.' P.U.D.D.U.U.J.U.P.J.D.P.c.",
"` ~.S.c.c.G.G.c.c.m.c.m.J.R.P.J.c.' S.T.E.D.F.J.G.G.J.P.J.D.P.c.",
"c.S.' D./.U.G.m.m.v.S.J.~.~.P.R.c.G.J.E.G.G.J.S.b.m.b.F.m.M.P.b.",
"b.c.m.G.D.D.F.S.c.R.)./.~.R.P.D.c.G.m.S.G.~.F.b.m.c.m.D.G.R.P.c.",
"S.D.J.b.m.J.J.D.P./.W.U.).R.E.G.b.v.S.G.G.] c.m.m.F.G.G./.Q.m.c.",
"D.P.J.G.R.P.S.S.~.~.P.J.^.R.J.M.c.b.v.m.' b.S.G.P.D.J.~.~.D.G.D.",
"S.P.R.G.m.G.S.G./.~.U.)./.E.S.m.b.' m.M.D.R.R.G.D.S.~.J.F.G.G.T.",
"G.b.E.U.U.D.G.G.D.G.G.G.b.z.l.x.N.g.d.f.s.d._ c.D.R.P.~.J.c.M.~.",
"S.F.R.J.h.f.j.7.6.6.6.5.5.4.9.0.0.8.&.0.a.].u.r.g.D.G./.~.F.D.D.",
"v.J.J.:.1.9.2.<.>.*.$.@.O.5 3 3 2 > - = l ,.=.>.6 ~ F.G.J.S.S.F.",
"b.J.l.4 6 1 1 1 2 2 2 3 3 3 5 o.X.e p w E -.i.y.q.f l.P.U.G.D.b.",
"b.D.g.6 %.$.$.$.$.$.$.$.$.$.$.$.5 y w.9.q E t.].].u.w J.P.D.D.' ",
"J.G.h.3 +.o.o.o.o.o.o.o.o.o.o.+.4 p q.C.< E c t.p.[.q.c M.S.D.J.",
"R._.~ >.2.<.<.<.<.<.<.<.<.<.<.2.=.W c 7.d t Y M 1.e.5.i / T.R./.",
"D.J.V $.$.@.@.@.@.$.$.$.$.$.$.*.j L P W I P P [ { R {  ...B.T.R.",
"v.S.N o.$.o.o.o.o.o.o.o.o.o.o.+.s F F L K K A H  .| | } ! ) J.m.",
"R.S.B o.$.o.+.+.@.@.@.@.+.$.$.#.j D D L L L K S Z E @ 8 0 ^ m.J.",
"~.m.v 6 *.<.+.$.$.@.@.+.$.-.@.#.g J T U J K L D m s $ , h.( z.R.",
"S.J.u >.o.> V.;.$.$.$.$.-.$.+.#.d Y r O Z G L G l.~ * : q ( S.D.",
"G.T.s.x 9 9 {.n ; 3 @.>.$.$.$.&.l + # j.a C J S 0 7 0 c :.j A.m.",
"J.D.G.F.b.7 m % X V d.N h d , 2 d   3.`.Z.X k h z 6.5.-.k B ~.D.",
"J.S.G.R.F.n.u b l.D.U.J.J.J.' ) l.t a '.j.. * ;.;.3.V / S.P.R.D.",
"J.P.R.U.J.J.~.J.S.G.~.R.R.J.c.U.R.G.7 & o & Q /.L.M.c.S.J.J.D.G.",
"P.D.M.S.S.J.U.J.D.J.D.U.R.(.R.~.G.F.G.J.S.D.m.P.U.G.~.).~.J.G.G.",
"D.m.J.P.~.~.J.m.b.m.J.U._.).U.J.S.P.U.P.S.c.G.D.M.J.U.P.m.D.T.J."
};
