/* XPM */
static char *_8879538d01a4a6ca3bf6d525a8cd581t0UXL0vufa46XNwK[] = {
/* columns rows colors chars-per-pixel */
"32 32 179 2 ",
"   c #311F27",
".  c #162139",
"X  c #1D263B",
"o  c #22283C",
"O  c #5C382F",
"+  c #613D35",
"@  c #71493F",
"#  c #162640",
"$  c #183958",
"%  c #2C354B",
"&  c #383D4D",
"*  c #213C57",
"=  c #483F48",
"-  c #563F40",
";  c #22415E",
":  c #324357",
">  c #3A4A5E",
",  c #38566D",
"<  c #2B5776",
"1  c #305773",
"2  c #325976",
"3  c #345D7A",
"4  c #395E79",
"5  c #35617E",
"6  c #3D627E",
"7  c #48464C",
"8  c #594A4D",
"9  c #444955",
"0  c #594C51",
"q  c #5B5559",
"w  c #57585E",
"e  c #794F43",
"r  c #7F5140",
"t  c #685B57",
"y  c #795D55",
"u  c #69615D",
"i  c #76655D",
"p  c #7B625C",
"a  c #4D5665",
"s  c #465B6B",
"d  c #4A5C6C",
"f  c #505D68",
"g  c #465F71",
"h  c #57636E",
"j  c #476275",
"k  c #4B697E",
"l  c #546472",
"z  c #56697B",
"x  c #5C737D",
"c  c #66666A",
"v  c #7A6C63",
"b  c #7D786D",
"n  c #646771",
"m  c #626873",
"M  c #63727C",
"N  c #737673",
"B  c #767A76",
"V  c #7D7D75",
"C  c #834F3C",
"Z  c #9A563A",
"A  c #BB4E23",
"S  c #B95127",
"D  c #B4542D",
"F  c #A75D3A",
"G  c #BC5C34",
"H  c #BC643C",
"J  c #C45728",
"K  c #C5592A",
"L  c #CA5B2A",
"P  c #DE5D25",
"I  c #D15C2C",
"U  c #C25E33",
"Y  c #D4622F",
"T  c #C4673B",
"R  c #DE6730",
"E  c #E07E3F",
"W  c #885948",
"Q  c #965B44",
"!  c #80786D",
"~  c #DE7B43",
"^  c #87867B",
"/  c #928876",
"(  c #9B8A74",
")  c #968C7A",
"_  c #9C8E79",
"`  c #9F957E",
"'  c #A49779",
"]  c #A69979",
"[  c #A99C7D",
"{  c #DF8B56",
"}  c #EA8746",
"|  c #F28A48",
" . c #FF974D",
".. c #FFA155",
"X. c #D59362",
"o. c #2D5F80",
"O. c #366584",
"+. c #386583",
"@. c #376887",
"#. c #3A6987",
"$. c #346B8B",
"%. c #3A6B8A",
"&. c #3D718F",
"*. c #376F93",
"=. c #3D7191",
"-. c #466C86",
";. c #44728E",
":. c #48708A",
">. c #517182",
",. c #5C7486",
"<. c #427593",
"1. c #4C7794",
"2. c #437896",
"3. c #4A7996",
"4. c #447B9A",
"5. c #687782",
"6. c #53839F",
"7. c #5B849C",
"8. c #678798",
"9. c #798C96",
"0. c #4B85A7",
"q. c #5587A5",
"w. c #5388A7",
"e. c #5A94B5",
"r. c #5A9ABE",
"t. c #638EA6",
"y. c #7094A4",
"u. c #5AA5CC",
"i. c #69A6C6",
"p. c #70A8C5",
"a. c #6CB2D5",
"s. c #76BFE1",
"d. c #7BC7EB",
"f. c #858B85",
"g. c #8C8D84",
"h. c #89928E",
"j. c #9E9685",
"k. c #949589",
"l. c #9C9A8B",
"z. c #849199",
"x. c #A59B84",
"c. c #A49A85",
"v. c #AEA181",
"b. c #A7A08B",
"n. c #B3A584",
"m. c #B7A886",
"M. c #B8AA87",
"N. c #B6AA8E",
"B. c #BBAC8A",
"V. c #BFB08D",
"C. c #A9A592",
"Z. c #B3AA92",
"A. c #8095A3",
"S. c #84A4B6",
"D. c #AFBABE",
"F. c #C0AF8D",
"G. c #C1B28E",
"H. c #C5B591",
"J. c #CAB791",
"K. c #C7B894",
"L. c #CBBB96",
"P. c #C6B998",
"I. c #CEBE99",
"U. c #D1BF9A",
"Y. c #CFC09B",
"T. c #D3C39C",
"R. c #D8C79E",
"E. c #D7C7A0",
"W. c #DBCBA3",
"Q. c #DFD1A9",
"!. c #E0CFA6",
"~. c #E0D0A6",
"^. c #E3D3AA",
"/. c #ECDCB3",
"(. c #ABC1CC",
"). c #BAC9CE",
"_. c #82CAEB",
"`. c #9FEAFF",
"'. c #CADBDE",
/* pixels */
"K.I.W.^.T.G.B.v.v.K.T.W.W.H.K.T.K.I.T.G.m.K.T.K.T.K.H.I.K.T.R.R.",
"B.H.R.G.m.G.K.M.L.T.T.T.V.m.T.E.B.T.K.n.G.K.K.K.K.G.K.W.W.W.W.G.",
"B.M.E.T.T.K.K.K.H.K.K.K.M.v.c.b.C.l.f.h.f.g.` n.H.R.I.W.I.n.V.n.",
"W.K.R.I.l.h.z.9.8.8.8.7.7.6.q.w.w.0.*.w.d._.p.y.k.K.K.W.W.L.H.L.",
"T.I.L.,.3.q.4.2.<.=.%.#.+.5 3 3 < > - = l 1.-.<.6 ^ K.L.I.G.G.I.",
"B.I.c.4 6 1 1 1 2 2 2 3 3 3 5 O.o.e p w W :.a.i.e.f c.T.T.K.H.G.",
"n.K.j.6 &.%.%.%.%.%.%.%.%.%.%.%.5 y r.q.q W u._._.p.w I.T.H.H.G.",
"' K.l.3 @.O.O.O.O.O.O.O.O.O.O.@.4 y e.S.< W c u.s.`.e.c V.G.K.n.",
"' ^.^ <.4.2.2.2.2.2.2.2.2.2.2.4.-.Q c 9.d t T M 3.t.7.i ( T.R.n.",
"n.I.V %.#.#.#.#.#.#.#.#.%.%.%.=.j L P Q U I I { } E } ..X.Z.T.m.",
"M.G.N O.%.O.O.O.O.O.O.O.O.O.O.O.s F F L K K A H .. . .| ~ _ I.n.",
"G.G.B O.%.O.@.@.#.#.#.#.@.%.%.$.j D D L L L K S Z W @ 8 0 / B.n.",
"K.B.v 6 =.2.@.%.%.#.#.@.%.;.#.$.g K R Y J K L D m s $ , l.) v.H.",
"G.I.u <.O.> A.>.%.%.%.%.;.%.@.$.s T r O Z G L G c.^ * : q ) G.T.",
"K.T.f.x 9 9 '.n ; 3 #.<.%.%.%.*.l + # z.a C J S 0 7 0 c ,.j F.W.",
"G.K.K.J.M.7 m % X V g.N h d , 2 d   5.(.D.X k h z 8.7.;.k B W.K.",
"M.G.K.R.L.N.u b c.K.T.I.I.I.[ _ c.t a ).z.. * >.>.5.V ( G.T.R.L.",
"M.T.R.T.I.I.W.I.G.K.W.R.R.I.n.T.R.P.7 & o & ! W.U.G.n.G.I.I.K.M.",
"M.R.I.I.T.R.W.I.P.I.W.I.G.V.G.E.K.T.Q.j.c.T.I.H.H.G.G.L.G.K.T.[ ",
"I.B.G.V.G.I.R.I.M.B.K.M.K.G.n.I.I.W.T.G.M.K.K.K.K.W.W.K.T.W.K.I.",
"R.G.B.B.G.I.W.G.B.m.K.K.G.H.T.!.R.R.B.n.H.H.n.I.W.^.W.I.~.^.I.W.",
"K.M.n.G.I.R.I.K.m.M.R.L.I.W.W.T.G.n.B.G.I.n.n.R.W.W.T.W.^.R.K.R.",
"M.] v.T.T.K.T.G.n.K.W.I.K.K.T.m.M.I.T.R.K.K.I.W.W.T.K.T.R.I.I.B.",
"R.n.K.E.I.W.W.B.G.T.K.B.m.W.R.K.T.G.I.K.G.I.B.T.W.I.I.R.K.K.I.I.",
"W.G.I.W.W.I.I.K.K.B.[ B.R.^.T.I.n.B.I.B.G.T.K.W.W.K.H.G.G.G.K.R.",
"G.L.B.I.K.K.H.B.n.I.K.m.n.K.G.K.K.W./.W.R.T.K.K.K.H.m.M.n.K.I.K.",
"K.K.K.B.B.H.M.B.G.K.B.m.L.T.T.R.I.^.W.T.I.L.n.[ v.v.n.n.K.T.K.B.",
"I.L.B.B.K.B.B.K.K.V.V.K.E.K.I.K.H.I.T.W.T.H.n.n.M.M.n.B.R.K.B.K.",
"I.B.M.H.G.G.B.B.M.n.K.I.Y.T.K.n.m.G.T.I.I.H.n.[ G.K.B.I.I.n.n.K.",
"I.G.K.K.K.K.M.K.G.R.T.I.T.I.G.K.I.I.L.K.K.B.n.m.I.K.K.R.I.I.I.K.",
"T.K.V.G.G.I.T.I.K.I.H.T.R.Q.R.W.K.L.L.I.G.H.B.T.T.K.W.~.W.L.K.K.",
"K.B.I.T.W.W.I.B.m.B.I.T.^.^.T.I.G.T.T.T.G.n.K.K.V.I.R.T.B.H.T.I."
};
