/* XPM */
static char *b80ce3f0e1fe40a2bb8204f1d193b15eglMJmKlzKmINDHPh[] = {
/* columns rows colors chars-per-pixel */
"32 32 193 2 ",
"   c #000000",
".  c #090804",
"X  c #121207",
"o  c #000015",
"O  c #0E1011",
"+  c #1B1B15",
"@  c #261F1C",
"#  c #262600",
"$  c #2C2510",
"%  c #2B271D",
"&  c #040328",
"*  c #0E0D29",
"=  c #1B1B2B",
"-  c #070636",
";  c #00003C",
":  c #201E37",
">  c #28252F",
",  c #322925",
"<  c #342C29",
"1  c #3F332F",
"2  c #373639",
"3  c #433E3D",
"4  c #434300",
"5  c #535301",
"6  c #52520C",
"7  c #4C4C19",
"8  c #545417",
"9  c #63630B",
"0  c #7A7A00",
"q  c #767609",
"w  c #7E7E13",
"e  c #555521",
"r  c #494834",
"t  c #51433D",
"y  c #564B3D",
"u  c #606023",
"i  c #7B7B23",
"p  c #606031",
"a  c #010143",
"s  c #00004B",
"d  c #0D0C49",
"f  c #010152",
"g  c #0A0955",
"h  c #00005B",
"j  c #171659",
"k  c #211C56",
"l  c #262343",
"z  c #25234E",
"x  c #383440",
"c  c #26265A",
"v  c #000065",
"b  c #00006C",
"n  c #0B0A6C",
"m  c #141464",
"M  c #171768",
"N  c #000074",
"B  c #080475",
"V  c #0D0D75",
"C  c #00007C",
"Z  c #151471",
"A  c #1A1A74",
"S  c #12127C",
"D  c #221C7E",
"F  c #252365",
"G  c #3E3A60",
"H  c #2F2B78",
"J  c #3B377E",
"K  c #443750",
"L  c #413C6B",
"P  c #484646",
"I  c #574E44",
"U  c #565040",
"Y  c #4B4B55",
"T  c #585B5C",
"R  c #69564F",
"E  c #665D49",
"W  c #6B5751",
"Q  c #645C54",
"!  c #6E5959",
"~  c #755E57",
"^  c #6A634F",
"/  c #6E665B",
"(  c #7C655E",
")  c #726859",
"_  c #747455",
"`  c #7C725B",
"'  c #544967",
"]  c #464370",
"[  c #6B5C66",
"{  c #6D6867",
"}  c #7E7570",
"|  c #81775F",
" . c #8E735E",
".. c #836A63",
"X. c #837563",
"o. c #897D65",
"O. c #897969",
"+. c #937770",
"@. c #888800",
"#. c #9C9C00",
"$. c #909009",
"%. c #ACAC00",
"&. c #B7B700",
"*. c #858532",
"=. c #C6C600",
"-. c #CDCD00",
";. c #D4D402",
":. c #EFEF00",
">. c #F3F300",
",. c yellow",
"<. c #8C8268",
"1. c #93876C",
"2. c #958A6F",
"3. c #9B8F72",
"4. c #9F8178",
"5. c #9E9275",
"6. c #A3857B",
"7. c #A4897A",
"8. c #A9897C",
"9. c #B08E78",
"0. c #A39678",
"q. c #A6997A",
"w. c #AA9D7E",
"e. c #B89571",
"r. c #000084",
"t. c #090884",
"y. c #00008B",
"u. c #161481",
"i. c #000093",
"p. c #00009C",
"a. c #110E9A",
"s. c #171595",
"d. c #232380",
"f. c #0000A3",
"g. c #0000AB",
"h. c #0000B4",
"j. c #0000BB",
"k. c #494489",
"l. c #0000C4",
"z. c #0000CC",
"x. c #0000D4",
"c. c #0000DC",
"v. c #0000E4",
"b. c #0000EC",
"n. c #0000F3",
"m. c #0000FE",
"M. c #AC8D83",
"N. c #B69389",
"B. c #B9968C",
"V. c #BD9A8D",
"C. c #AEA180",
"Z. c #B3A584",
"A. c #B7A886",
"S. c #B8AA87",
"D. c #B7AA88",
"F. c #BCAD8A",
"G. c #BFB08C",
"H. c #C09C84",
"J. c #C39E93",
"K. c #C1B28E",
"L. c #CAA498",
"P. c #CCA69A",
"I. c #D7AE95",
"U. c #D1A99E",
"Y. c #C5B691",
"T. c #C7B894",
"R. c #CBBB95",
"E. c #CEBE98",
"W. c #DCB29B",
"Q. c #E0B69C",
"!. c #D4ACA0",
"~. c #DBB2A6",
"^. c #E2B7AB",
"/. c #E4BAAD",
"(. c #E8BCAF",
"). c #EABEB1",
"_. c #D3C39C",
"`. c #DCCCA3",
"'. c #DECFA8",
"]. c #DFD1A9",
"[. c #EFC2AE",
"{. c #F2C5AA",
"}. c #E4D4AA",
"|. c #EEC1B3",
" X c #F1C4B6",
".X c #F6C9B7",
"XX c #F5C6B9",
"oX c #F7C8BB",
"OX c #FBCBBD",
"+X c #EBDCB2",
"@X c #FFDBBF",
"#X c #FFCFC1",
"$X c #FFD1C2",
/* pixels */
"T.E.`.`._.K.F.C.C.Y._.D.} G j h v Z L / 5.T._.T._.T.Y.E.T._._._.",
"F.w., , , 3.Y.S.T.O.z v y.d 8 q w r l.x.r.Y S.Y.T.K.T.`.`.`.`.K.",
"X., 8.L.8., G.Y.Q f C r.p.s 0 ;.,.r c.b.m.v.u.O.Y._.`.+X+X`.Y.Z.",
", L.L.B.P., q.` X.Q h m p q 4 @.%.9 *.] x.m.i.P E._._.}._.F.Z.R.",
", ~.!.P.^., , , <.`.+ 5 5 #       . 4 0 e g 1.T.T._.`.'.K.D.Y.E.",
", XX(.(.XX, U., _.o.%                 = X $ K._.E._.K.Y.A.E._.K.",
", OX). XXX, U., T.X.M.O           O T { t N.w.`._.A.Z.F._.}.T.K.",
", OX XM.P.)./., w.t V.+.    1 @ <     W ~.R q.K.Z.A._._.}.K.F.Z.",
", $X^.W ^.|.OX, , Z.6./.6.4...#X6.~ N.B.OXI G.A.F._.E.`.E.Z.G.Z.",
", $XP.( $XOX[.E , T.B...( M.+.W ( M.~ t U.7.K.E.E.T.T.`.`.T.Y.A.",
"o.( .Xy 8.B.K a z 2 V.J.).oXXXU.).).oX6.8.[ a.s.H ' | Z.E.K.K.Z.",
"K.` x k ; f v C r.d Q.$X).        (.(.oX@X' x.v.v.c.j.t.] 3.Y.Z.",
"Y.K.* v v b b N C b ! H.|. X XoXOX|.XXL.e.D z.x.x.c.b.m.n.l.k.F.",
"K.T.2.; b b b N N r.b & +.W.I.9. .W.{.R s f.u h.b.b.v.v.b.m.m.J ",
"T.}._.E a h h N N C y.y.C b g ; a B a.f.x.F -.i _ Y c.b.b.n.m.y.",
"K.E.F.Y.2.* b N N C r.y.2 i y.h.g.P G C 6 @.&.>.:.Y b.b.b.n.m.F ",
"S.K.S.Y.E.- N N N C r.y.7 %.V h.y.#.$.f.c q =.>.;.j.b.v.b.m.c.X.",
"S.K.K._.` f N N N C r.y.i.y.p.p.g.i.f.l.x.e %.r ;.*.b.b.b.m.M A.",
"S.F.T._.3 v b N N C r.y.m Z p.f.g.S A j.l.m V v.h.d.l.c.m.p.o.w.",
"E.E.}._.: b b N C C y.N #.%.y.g.p.0 &.p.l.z.x.x.c.n.z.g.a.o.K.E.",
"_._._.Z.- b b N N C r.r.z c p.f.f.Z A j.j.l.z.z.x.c.b.k q.S.E.`.",
"Y.Y.T.q.; b b N N C r.y.r.r.p.f.g.p.t.h.j.l.z.z.x.c.n.n < E _._.",
"S.K.T.5.a b b N N C r.C 0 %.y.g.g.7 -.S z.l.z.z.x.c.n.y.    + w.",
"_._._.o.s b b N N C r.r.2 r i.f.g.M P f.l.l.z.z.x.c.n.g.      o.",
"`._.E.| ; b N C r.r.y.i.p.f.f.f.g.j.l.j.l.z.x.c.v.b.b.f.` U y K.",
"K.T.F.Y.o.> & ; s h v N C y.i.p.f.g.g.h.h.g.f.i.N f l / Z.T.E.Y.",
"T.Y.Y.F.F.<               I / { [ x o o o         . 0.Z.Y._.Y.F.",
"E.T.F.F.Z..               T.E.T.Y.5.                ) F._.T.F.Y.",
"E.F.S.K.3.                _.Y.Z.A.Z..               r E.E.Z.Z.Y.",
"E.K.Y.T.<.                E.K.Y.E.E.                % _.E.E.E.T.",
"_.Y.C.y                   ]._.`.T.T.                . ^ C.R.T.T.",
"Y.F.                      }._.E.K._.                .   O 3._.E."
};
