/* XPM */
static char *_c751dfcec3f4407bd539c870825d347tgLnYOrdhqLsRCqn[] = {
/* columns rows colors chars-per-pixel */
"32 32 86 1 ",
"  c #141415",
". c #1C1C1C",
"X c #242424",
"o c #2C2C2C",
"O c #343434",
"+ c #383736",
"@ c #3C3C3C",
"# c #444444",
"$ c #4B4B4B",
"% c #514D42",
"& c #545454",
"* c #5C5C5C",
"= c #635F57",
"- c #6B6455",
"; c #60605F",
": c #6C675B",
"> c #6F695A",
", c #726C5C",
"< c #656564",
"1 c #686867",
"2 c #6C6B6B",
"3 c #777161",
"4 c #7A7464",
"5 c #70706E",
"6 c #7A766E",
"7 c #7F7868",
"8 c #747472",
"9 c #7C7C7B",
"0 c #827863",
"q c #837C6A",
"w c #827E75",
"e c #807F7D",
"r c #89806B",
"t c #90866E",
"y c #8B8472",
"u c #89857C",
"i c #918770",
"p c #A39679",
"a c #AA9D7D",
"s c #ADA07F",
"d c #848482",
"f c #898988",
"g c #928E83",
"h c #959085",
"j c #949493",
"k c #989896",
"l c #9E9E9C",
"z c #AFA180",
"x c #B3A584",
"c c #B7A886",
"v c #B8A987",
"b c #B7A988",
"n c #BCAD8A",
"m c #BFB08D",
"M c #AEADAC",
"N c #B3B3B2",
"B c #C1B28E",
"V c #C5B591",
"C c #C7B894",
"Z c #CABB95",
"A c #CBBC97",
"S c #CDBC97",
"D c #CBBC98",
"F c #CDBD98",
"G c #CFC09A",
"H c #D1C29B",
"J c #D2C29C",
"K c #D4C39C",
"L c #D3C49F",
"P c #D6C69E",
"I c #D7C7A0",
"U c #D8C7A1",
"Y c #DACAA1",
"T c #DCCBA3",
"R c #DCCCA3",
"E c #DACBA4",
"W c #DECEA6",
"Q c #DECFA8",
"! c #DFD1A9",
"~ c #E1D0A6",
"^ c #E1D1A9",
"/ c #E4D3A9",
"( c #E6D5AB",
") c #E5D5AC",
"_ c #E9DAB0",
"` c #EDDEB4",
/* pixels */
"CFT(HBnszCHWYVCJCSJBcCHCHCVSCJPP",
"nBPBcBCvCHHJmcHInJCcBCCCCBCEWWWB",
"nFVcnCCCCCCCnBSmCFvcvvnnCHW_`RVx",
"WHCCCnnvCFCCCCnFGBccsnmCFJP^JncD",
"LVBcnxccHYCBHVFYCCbcvmCCCPYQBbVF",
"nxavmnCFKCnAFFHBBnanCCPHFHBCcFPB",
"xzcCFFYWCrhhgguuww6=%3CTHccnP/CB",
"paCHJCPCa>1***&&&&$#oO,BxcHP(Bnc",
"pvIJJCCVm4$oooXXXoO@oo>cnPFYFcmx",
"xCPYPCFCn4$Oo.OoX@O@oo,FSCCWYCVc",
"vF~)VvCxB4$OoXd9O@@@oO3HCCCAFmBx",
"BFIJxnBCH3#Oo.@+X@@@O@3CCSBHJCVc",
"CCYIVmnFI4#oooXXXoO@@#3CBCHKHVVV",
"BC)CbDCSP,&$$$#####@#$4BCBCCBBCL",
"C(JxCCHWY:<<*$##&**@#$7BvvCBCJPY",
"BSnCPJYPB,<&oXXXX@&@$&qCvmSHYWJC",
"vBvCTHnBJ4*OX#<1@X#@$&qBvCPJWWSC",
"vBBPPncCJ>#X#998eOoO$&qcvSSHPvnv",
"vnCPCBnnB-@.2dMjd;Xo$&3znCCHnaza",
"SF)PCVCCV>@.5k85l1Xo$&4CSPSnavBS",
"PPPBxBCSv-#XO9fMM@oO#$4CCCbcxvSW",
"CCCCBSPCx-$O.O19@X@O@$3PCCCCnm~P",
"vBCPCFSBm-$$OX .o@#O@$qYR(mcCHPn",
"PHPKSFYSm,$###9*@##O@&yWFmxBFSCF",
"TPFSHPYCB,###$N9@##O#:nBnBBCBCJP",
"BCnSCCBncnptri0qqry3qSCCCCcvxCFC",
"CCCnnncnBCncAHJPF^YJSCxazzxcCKCn",
"FCnnCnnCCmmCUCFCVFJYFBxcvvxnPCnC",
"FnvBmBnnvcCFGJCxcBHCFVxaBCnSSxcC",
"SBCCCCvCBPJFJFBCSSCCCnxcFCCPFSSC",
"HCmBBFJSCFVJP!PYCCZSBVnHJCY~YSCC",
"CnFHYYSncnFJ)^JFBHJHBcCCmFPHnVLF"
};
