/* XPM */
static char *_e1cbfceadd1496de9f5e3ead34036e6h4L2sahlJLrCLV21[] = {
/* columns rows colors chars-per-pixel */
"32 32 73 1 ",
"  c #0A0A09",
". c gray8",
"X c #1C1C1C",
"o c #20201F",
"O c #242424",
"+ c #2C2C2C",
"@ c #343434",
"# c #3B3B3B",
"$ c #444444",
"% c #4B4B4B",
"& c #535353",
"* c #5C5C5C",
"= c #60605F",
"- c #666665",
"; c #686866",
": c #6C6C6B",
"> c #6F706E",
", c #737371",
"< c #797977",
"1 c #7E7E7D",
"2 c #82817F",
"3 c #A69979",
"4 c #AD9F7F",
"5 c #AEA07F",
"6 c #838383",
"7 c #888784",
"8 c #898987",
"9 c #8D8D8D",
"0 c #939393",
"q c #989896",
"w c #9C9C9B",
"e c #AFA181",
"r c #B3A584",
"t c #B7A886",
"y c #B8A987",
"u c #BCAD8A",
"i c #BFB08D",
"p c #A0A0A0",
"a c #ACACAB",
"s c #B4B4B4",
"d c gray73",
"f c #C2B28E",
"g c #C5B591",
"h c #C7B894",
"j c #CABA95",
"k c #CCBC95",
"l c #CDBD97",
"z c #CEBE98",
"x c #D0BF99",
"c c #CFC09B",
"v c #D2C29A",
"b c #D3C39C",
"n c #D4C39C",
"m c #D3C49E",
"M c #D7C69F",
"N c #D8C79F",
"B c #D8C89F",
"V c #D7C7A1",
"C c #D7C8A1",
"Z c #DBC9A1",
"A c #DCCBA3",
"S c #DBCCA3",
"D c #DDCCA2",
"F c #DACBA4",
"G c #DCCCA4",
"H c #DECEA5",
"J c #DFD0A8",
"K c #E0CFA7",
"L c #E1D0A5",
"P c #E1D1A8",
"I c #E3D3A9",
"U c #E5D5AC",
"Y c #E8D8AD",
/* pixels */
"jkLZkSZMgfvvKYMjgukHHHHjukHkfczv",
"hMZfhhgjVMkMZvgMkffjHZmiubvVcjug",
"vHzufrgkjgjhfugftyuvUZzfgzPCyrtk",
"DMzjuggfggzhzfbzjzMMUVhzbmju4yzN",
"DZMgfggjghgMjbPJbMzAChVMFbyykZvZ",
"VvurrijgggjguMZvgtuvgZFhhrrMjuML",
"jfuugjgjhjnjjkjgfgyizJhggykjufzc",
"zvzjijMurkggjZMkky4vbggbbzbvzgvZ",
"HZferjjtruruzMvzr4fmVghzjjzvzgvH",
"jf4gHbjuuyfzZZvMrjzVjjkfyuyhuivk",
"grujgghftMPHZMvgrjyfjDhyutughMvu",
"fgzyukkgva0wwq00988:&1ruuhjkHCug",
"bvkjMvffZ6$%%%$$$$$#X fkvgzZZgjz",
"MvMjujfjH8@+++OOO+@#+XMjgfZzhjjj",
"MzhfggfHL8@@+X@+O###+Xbutgfuiugj",
"zhjjkvkvx8@@+O71@###+ouighgzgtgg",
"gzgyffgkv8@@+X#@O###@OyffhMZyuzv",
"vvtuhjzjf8++++OOO+@##+ygfgkutvZg",
"Mjixghgkf6#%%%$$$$$#$@hbggZguZhg",
"AufifkMky6&;*%$$&**#$#jjjSHgvDgf",
"kfuugkZfu1%&+OOOO#&#%#rkZPZzLPkM",
"jyrfzMkht1$@O$-;#O$#%$tMHZvZPMjg",
"u3evbjvfr6@O$1<,1@+@%$zHZvgnNkzg",
"urgVzHHuf1+X:6a02=O+%$ubHzzMjjzu",
"ifzZZzkgj1+X:q,>w;O+%$gAHjgfffgu",
"ufuMVxAfy1@O@18aa#+@$#zcggfujgkf",
"ttgZcbgtt1#@X@;<#O#@##ghughbvgjg",
"ykZgbjfyf1#%@O.X+#$@##yjzVMhigxf",
"fjgfffttf1@$$$1*#$$@##ugbguyuuHf",
"4tguut3gj1O@@#p:+@+XO:Vzbgffujj5",
"uhiutrgkzjddsawqq08<9HzzVuukhxye",
"zgfvuhjjfttvgMBhuyfzAZbZiuvBgggk"
};
