/* XPM */
static char *_a70d09bd76d4363ee187ed3001c88ccEZqPf1S3LoSkjv7x[] = {
/* columns rows colors chars-per-pixel */
"32 32 72 1 ",
"  c #0A0A09",
". c gray8",
"X c #1C1C1C",
"o c #20201F",
"O c #242424",
"+ c #2C2C2C",
"@ c #343434",
"# c #3B3B3B",
"$ c #444444",
"% c #4B4B4B",
"& c #535353",
"* c #5C5C5C",
"= c #60605F",
"- c #666665",
"; c #686866",
": c #6C6C6B",
"> c #6F706E",
", c #737371",
"< c #797977",
"1 c #7E7E7D",
"2 c #82817F",
"3 c #A69979",
"4 c #AC9E7E",
"5 c #AEA07F",
"6 c #838383",
"7 c #888784",
"8 c #898987",
"9 c #8D8D8D",
"0 c #939393",
"q c #989896",
"w c #9C9C9B",
"e c #AFA181",
"r c #B3A584",
"t c #B7A886",
"y c #B8A987",
"u c #BCAD8A",
"i c #BFB08D",
"p c #A0A0A0",
"a c #ACACAB",
"s c #B4B4B4",
"d c gray73",
"f c #C1B28E",
"g c #C5B591",
"h c #C7B894",
"j c #CBBB95",
"k c #CCBB95",
"l c #CBBC95",
"z c #CDBD97",
"x c #CCBD98",
"c c #CEBE98",
"v c #D0BF99",
"b c #CFC09B",
"n c #D2C29A",
"m c #D1C29C",
"M c #D3C39C",
"N c #D3C49E",
"B c #D7C69F",
"V c #D8C79F",
"C c #D8C89F",
"Z c #D7C7A1",
"A c #D7C8A1",
"S c #DBC9A1",
"D c #DBCBA3",
"F c #DBCCA3",
"G c #DDCCA2",
"H c #DACBA4",
"J c #DBCBA4",
"K c #DECEA5",
"L c #E0CFA7",
"P c #E1D0A5",
"I c #E3D3A9",
"U c #E8D8AD",
/* pixels */
"jlPSzFSBgfnnLUBjguzKKKKjulKzfbcn",
"hBSfhhgjZa0wwq00988:&1NiumnZbjug",
"nKcufrgzj6$%%%$$$$$#X cfgcIAyrtz",
"GBcjuggfg8@+++OOO+@#+XhcmNju4ycV",
"GSBgfggjg8@@+X@+O###+XZBJmyyzSnS",
"Znurrijgg8@@+O71@###+oJhhrrBjuBP",
"jfuugjgjh8@@+X#@O###@Ohggyljufcb",
"cncjijBur8++++OOO+@##+gmmcmncgnS",
"JSferjjtr6#%%%$$$$$#$@hcjjcncgnK",
"jf4gKmjuu6&-*%$$&**#$#zfyuyhuinz",
"grujgghft1%&+OOOO#&#%#hyutughBnu",
"fgcyuzzgn1$@O$-;#O$#%$ruuhjlKAug",
"mnzjBnffS6@O$1<,1@+@%$fkngcSSgjc",
"BnBjujfjK1+X:6a02=O+%$BjgfSchjjj",
"BchfggfKP1+X:q,>w;O+%$mutgfuiugj",
"chjjznznv1@O@17aa#+@$#uighgcgtgg",
"gcgyffgzn1#@X@;<#O#@##yffhBSyucn",
"nntujjcjf1#%@O.X+#$@##ygfgzutnSg",
"Bjivghgzf1@$$$1*#$$@##hmggSguShg",
"SufifzBzy1O@@#p:+@+XO:jjjFKgnGgf",
"zfuugzSfutddsawqq08<9grzSIScPIzB",
"jyrfcBzhtyBhcSGnftufzrtBKSnSIBjg",
"u3enmjnfrgScggntyzmBggcKSngmVzcg",
"urgZcKKufmgutSBgnfcgfcumKccBjjcu",
"ifcSSczgju4uBInzrucufngSKjgfffgu",
"ufuBZvSfyytzSguurjhujccbggfujglf",
"ttgSbmgttufKntytggftzmghughmngjg",
"yzSgmjfyfghgrfucbggZBgyjcZBhigvf",
"fjgfffttffyutucjuthbu4ugmguyuuKf",
"4tguut3gjtgyyhgyuuuutBZcmgffujj5",
"uhiutrgzcjutgfzjfyttjKccZuuzhvye",
"cgfnuhjjfttngBChuyfcSSmSiunCgggz"
};
