/* XPM */
static char *_1451c17a3454f86f391614e159f0c3aInP9jYb02PN0ckYg[] = {
/* columns rows colors chars-per-pixel */
"32 32 123 2 ",
"   c #000000",
".  c #0A0203",
"X  c #0A0A0A",
"o  c #130205",
"O  c #180000",
"+  c #1F0509",
"@  c #131312",
"#  c #1F1D17",
"$  c #210106",
"%  c #230509",
"&  c #2C070D",
"*  c #30070E",
"=  c #31080E",
"-  c #3F0A13",
";  c #201D17",
":  c #251D18",
">  c #212524",
",  c #2D2A22",
"<  c #440B14",
"1  c #4C0C16",
"2  c #540D19",
"3  c #5C0E1B",
"4  c #491C1F",
"5  c #53101A",
"6  c #5F101C",
"7  c #630F1D",
"8  c #7D0518",
"9  c #7A0B1D",
"0  c #64101E",
"q  c #69111F",
"w  c #401C22",
"e  c #6D1120",
"r  c #731222",
"t  c #7A1324",
"y  c #58353B",
"u  c #6A262B",
"i  c #662E2F",
"p  c #68302F",
"a  c #6B3434",
"s  c #6C3936",
"d  c #64443D",
"f  c #6E433D",
"g  c #71403C",
"h  c #414242",
"j  c #6A4B41",
"k  c #794B45",
"l  c #6A5145",
"z  c #725347",
"x  c #715548",
"c  c #7D534A",
"v  c #735C4C",
"b  c #785B4D",
"n  c #7C595F",
"m  c #7C6252",
"M  c #7A715B",
"N  c #841527",
"B  c #881326",
"V  c #861528",
"C  c #8B1629",
"Z  c #8F182B",
"A  c #93172C",
"S  c #94182C",
"D  c #9B192F",
"F  c #9F1A30",
"G  c #A21B31",
"H  c #AA1C34",
"J  c #815D50",
"K  c #846455",
"L  c #816857",
"P  c #8A6A5A",
"I  c #84755F",
"U  c #89725D",
"Y  c #8B7561",
"T  c #8A7861",
"R  c #917762",
"E  c #947B65",
"W  c #9B846C",
"Q  c #9B896E",
"!  c #9D8E72",
"~  c #9C9174",
"^  c #A39377",
"/  c #A49679",
"(  c #A89478",
")  c #AB9C7D",
"_  c #868888",
"`  c gray54",
"'  c #AFA181",
"]  c #B3A584",
"[  c #BAA685",
"{  c #B7A886",
"}  c #B8A987",
"|  c #B7A988",
" . c #BCAD8A",
".. c #BFB08D",
"X. c #C3AF8F",
"o. c #C1B28E",
"O. c #C5B591",
"+. c #C7B894",
"@. c #CABB95",
"#. c #CEBE98",
"$. c #D0BF99",
"%. c #D1C19A",
"&. c #D2C29C",
"*. c #D4C39C",
"=. c #D3C49F",
"-. c #D6C69E",
";. c #D6C7A0",
":. c #D5C8A2",
">. c #DACAA1",
",. c #DCCBA3",
"<. c #DCCCA3",
"1. c #DACBA4",
"2. c #DECEA6",
"3. c #DECFA8",
"4. c #E1D0A6",
"5. c #E1D1A9",
"6. c #E4D3A9",
"7. c #E6D5AB",
"8. c #E5D5AC",
"9. c #E9DAB0",
"0. c #EDDEB4",
"q. c #F0F2F2",
"w. c gray97",
/* pixels */
"+.#.,.7.%.o. .) ' +.%.2.>.O.+.&.+.@.&.o.{ +.%.+.%.+.O.@.+.&.-.-.",
" .o.-.o.{ o.+.} +.%.%.&...{ %.;. .&.+.{ o.+.+.+.+.o.+.1.2.2.2.o.",
" .#.O.{  .+.+.+.+.+.+.+. .o.@...+.#.} { } }  . .+.%.2.9.0.<.O.] ",
"2.%.+.+.+. . .} +.#.+.+.+.+./ ] ] ) ! ! Q } ..+.#.&.-.5.&. .{ @.",
"=.O.o.{  .] { { %.>.+.o.%.E 5 2 2 2 1 1 1 K  .+.+.-.>.3.o.| O.#.",
" .] ) } .. .+.#.*.+. .+.R 0 S S S S G G S 7 m o.#.%.o.+.{ #.-.o.",
"] ' { +.#.#.>.2.+.{ ..P e N & & & & t H H S q c  .{ {  .-.6.+.o.",
"/ ) +.%.&.+.-.+.) ] K r t %         + r G G S 3 l { %.-.7.o. .{ ",
"/ } ;.&.&.+.+.O...U e S $             % V H S q f [ #.>.#.{ ..] ",
"] +.-.>.-.+.#.+. .Y q B w h       h @ % V G Z C q j +.2.>.+.O.{ ",
"} #.4.8.O.} +.] o.Y q 8 n q.X   @ w.h O C S e t 0 j +.@.#...o.] ",
"o.#.;.&.]  .o.+.%.U 0 9 y _     X ` > O C D 1 3 r j o.%.&.+.O.{ ",
"+.+.>.;.O... .#.;.R 7 t $           . 2 Z S 3 2 u R %.*.%.O.O.O.",
"o.+.8.+.| @.+.@.-.( a e 1 .       o 1 S A t a z W o.+.+.o.o.+.=.",
"+.7.&.] +.+.%.2.>.o.} c 7 2 o o o 2 B 0 3 k { o.} } +.o.+.&.-.>.",
"o.@. .+.-.&.>.-.o.&.+.z q A r e r A B 3 2 c  .+.} ..@.%.>.2.&.+.",
"} o.} +.,.%. .o.&.X.g t D G H H H G S S D t s Q } +.-.&.2.2.@.+.",
"} o.o.-.-. .{ +.&.L 3 A G G G G G G G G G A 3 x } @.@.%.-.}  .} ",
"}  .+.-.+.o. . .o.m 3 D G G G G G G G G G F 3 v  .+.+.%. .) ' ) ",
"@.#.8.-.+.O.+.+.O.T 6 H G G G G G G G G G G B p W -.@. .) } o.@.",
"-.-.-.o.] o.+.@.R i N G G G F Z F G G G G G S 7 z +.| { ] } @.2.",
"+.+.+.+.o.@.-.+.x 3 S G G G F B F G G G G G S 3 b +.+.+. ...4.-.",
"} o.+.-.+.#.@.o.m 3 C S G G N 2 V G G G G G S 3 L 7...{ +.%.-. .",
"-.%.-.*.@.#.>.@.m 3 N C F Z t < t Z F Z D S B t u L ] o.#.@.+.#.",
",.-.#.@.%.-.>.+.m 3 B V C t < o 1 t C S Z N N C e d o.+.o.+.&.-.",
"o.+. .@.+.+.o. .v 7 r 2 V t =   . < t Z B B 3 q q j { } ] +.#.+.",
"+.+.+. . . .{  .] J 3 t t - .     * t V 2 r 3 - f ! ] { +.*.+. .",
"#.+. . .+. . .+.+.{ K 1 < & @ / ^ 4 < 1 E f 1 j ) } ]  .-.+. .+.",
"#. .} o...o. . .} { +.] I : ) ] { ) : . ~ { ! / o.+. .@.@.] { +.",
"@.o.+.+.+.+.} +.o.-.&.#.~ ; o.+.@.@.# M .. .] { #.+.+.-.#.@.@.+.",
"%.+...o.o.#.&.@.+.#.O.&.! , #.>.+.o., ! o.O. .%.&.+.>.4.>.@.+.+.",
"+. .#.%.>.>.@. .{  .#.&.6.:.&.#.o.%.+.$.o.{ +.+...#.-.%. .O.=.#."
};
