/* XPM */
static char *_35edf08b2bd4d54fdfee21f439869cax6b2SImylw5bmEd3[] = {
/* columns rows colors chars-per-pixel */
"32 32 127 2 ",
"   c #000000",
".  c #0B0103",
"X  c #0B0B0B",
"o  c #130306",
"O  c #180003",
"+  c #1B0408",
"@  c gray8",
"#  c #181511",
"$  c #171A1A",
"%  c #210102",
"&  c #23050A",
"*  c #2A070D",
"=  c #360910",
"-  c #3C0A12",
";  c #201E18",
":  c #25221B",
">  c #28231D",
",  c #232323",
"<  c #3F2126",
"1  c #302C23",
"2  c gray19",
"3  c #3E3F3E",
"4  c #450B14",
"5  c #4B0C16",
"6  c #540D19",
"7  c #5A0E1B",
"8  c #45151B",
"9  c #620F1D",
"0  c #750214",
"q  c #74091A",
"w  c #65101E",
"e  c #68101E",
"r  c #6D1120",
"t  c #741322",
"y  c #7C1325",
"u  c #67262A",
"i  c #692E2F",
"p  c #6F2E32",
"a  c #673533",
"s  c #6D3334",
"d  c #6C3936",
"f  c #6A3D38",
"g  c #6C463E",
"h  c #71403C",
"j  c #434343",
"k  c #5E4044",
"l  c #734A42",
"z  c #7B4B45",
"x  c #6D5246",
"c  c #6E584A",
"v  c #725347",
"b  c #735649",
"n  c #7B5349",
"m  c #73594A",
"M  c #795C4E",
"N  c #7D5F51",
"B  c #7C6453",
"V  c #776955",
"C  c #7D6955",
"Z  c #831426",
"A  c #861528",
"S  c #8B162A",
"D  c #8E182B",
"F  c #92172B",
"G  c #94182C",
"H  c #9B192F",
"J  c #9E1A30",
"K  c #A21B31",
"L  c #AA1D34",
"P  c #82584D",
"I  c #836354",
"U  c #816856",
"Y  c #846C5A",
"T  c #8B6E5C",
"R  c #80765E",
"E  c #847A62",
"W  c #8A7F66",
"Q  c #957C65",
"!  c #8B6E71",
"~  c #9A836B",
"^  c #9C896E",
"/  c #9C8C72",
"(  c #A28770",
")  c #A39275",
"_  c #A49779",
"`  c #AB9D7E",
"'  c #B09A7D",
"]  c #ADA07F",
"[  c #818382",
"{  c #8B8C8C",
"}  c #AF9F80",
"|  c #B39F82",
" . c #AFA180",
".. c #B3A584",
"X. c #B9A786",
"o. c #B7A886",
"O. c #B8A987",
"+. c #B7A989",
"@. c #BCAD8A",
"#. c #BFB08D",
"$. c #C2AF8F",
"%. c #C1B28E",
"&. c #C5B591",
"*. c #C7B894",
"=. c #CBBB95",
"-. c #CEBE98",
";. c #D2C29C",
":. c #D4C39C",
">. c #D3C49F",
",. c #D6C69E",
"<. c #D6C7A0",
"1. c #DACAA1",
"2. c #DCCBA3",
"3. c #DCCCA3",
"4. c #DACBA4",
"5. c #DECEA6",
"6. c #DECFA8",
"7. c #DDD0A8",
"8. c #E1D0A6",
"9. c #E1D1A9",
"0. c #E4D3A9",
"q. c #E6D5AB",
"w. c #E5D5AC",
"e. c #E9DAB0",
"r. c #EDDEB4",
"t. c #E6E9E8",
"y. c #F9FAFA",
/* pixels */
"*.-.2.q.;.%.@.]  .*.;.5.1.&.*.;.*.=.;.%.o.*.;.*.;.*.&.=.*.;.,.,.",
"@.%.,.%.o.%.*.O.*.;.;.;.#.o.;.<.@.;.*.o.%.*.*.*.*.%.*.4.5.5.5.%.",
"@.-.&.o.@.*.*.*.*.*.*.*.@.%.=.#.*.-.O.o.O.O.@.@.*.;.5.e.r.3.&...",
"5.;.*.*.*.@.@.O.*.-.*.*.} ` ) ....` / o.] @.#.*.-.;.,.9.;.@.o.=.",
">.&.%.o.@...o.o.;.1.*.T 5 5 5 6 6 6 6 T o.#.*.*.*.,.1.6.%.+.&.-.",
"@...` O.#.@.*.-.:.@.N 7 F K K G G G G w Y #.,.;.-.;.%.*.o.-.,.%.",
".. .o.*.-.-.1.5.X.v w G K L Z * * * * y t I 3.2.;.o.o.@.,.0.*.%.",
"_ ` *.;.;.*.,.*.c 7 G K K y &         + t t P ` ..o.;.,.q.%.@.o.",
"_ O.<.;.;.*.*.` l w F L S *             O D t b @.,.-.1.-.o.#...",
"..*.,.1.,.*.-.b w S S K S * X j X     3 < Z t B =.*.*.5.1.*.&.o.",
"O.-.8.w.&.O.*.x 9 y r F D % 2 y.,     t.! 0 t U *.*.*.=.-.#.%...",
"%.-.<.;...@.%.v r w 4 G D % $ { @     [ k q r B *.=.%.;.;.*.&.o.",
"*.*.1.<.&.#.@.~ p 7 6 F D 7 .           O t w M %.*.;.:.;.&.&.&.",
"%.*.w.*.+.=.*.=.' b a t F H 6 o       . 5 r s ~ *.%.*.*.%.%.*.>.",
"*.q.;...*.*.;.5.1.%.O.n 7 9 Z 7 o o o 5 e z ..%.O.O.*.%.*.;.,.1.",
"%.=.@.*.,.;.1.,.%.;.*.n 6 7 Z G t r t G r n @.*.O.#.=.;.1.5.;.*.",
"O.%.O.*.2.;.@.%.;.$.h t H G G K L L L K J y d ^ O.*.,.;.5.5.=.*.",
"O.%.%.,.,.@.o.*.;.U 7 F K K K K K K K K K G 7 b O.=.=.;.,.O.@.O.",
"O.@.*.,.*.%.@.@.%.Y 7 H K K K K K K K K K J w b @.*.*.;.@.`  .` ",
"=.-.w.,.*.&.*.*.~ s y K K K K K K K K K K L w C =.,.=.@.` O.%.=.",
",.,.,.%...%.*.=.m 7 G K K K K K K F H K K K Z i Q *.+.o...O.=.5.",
"*.*.*.*.%.=.,.*.m 7 F K K K K K K S H K K K H 9 v *.*.*.@.#.8.,.",
"O.%.*.,.*.-.=.%.B 6 F K K K K K S 7 y K K G S 7 I q.#.o.*.;.,.@.",
",.;.,.:.=.-.1.Q u y Z G H S J S y 4 t S H S Z 9 M #...%.-.=.*.-.",
"2.,.-.=.;.,.1.b w S Z Z S G S y 5 o - t S A S 9 v %.%.*.%.*.;.,.",
"%.*.@.=.*.*.%.v w r 7 Z Z S y 5 .   * t S 7 r w m *.o.O...*.-.*.",
"*.*.*.@.@.@.o.` n 4 6 t 6 Z y =     . - t y 7 g )  ...o.*.:.*.@.",
"-.*.@.@.*.@.@.*.@.M 4 f ( 4 5 8 / ` ; * 4 5 n ` O.O...@.,.*.@.*.",
"-.@.O.%.#.%.@.@.O...| $.` . # ^ o.%.@.> V ` ` ` %.*.@.=.=...o.*.",
"=.%.*.*.*.*.O.*.%.,.;.-.=.W # #.=.=.*.: E @...o.-.*.*.,.-.=.=.*.",
";.*.#.%.%.-.;.=.*.-.&.;.,.+.> *.*.*.=.1 R &.@.;.;.*.1.8.1.=.*.*.",
"*.@.-.;.1.1.=.@.o.@.-.;.w.7.*.=.%.;.;.*.@.o.*.*.#.-.,.;.@.&.>.-."
};
